<svg width="19" height="20" viewBox="0 0 19 20" fill="none" xmlns="http://www.w3.org/2000/svg">
<path d="M18.6308 7.41243C18.5732 7.24262 18.467 7.09341 18.3256 6.98322C18.1841 6.87303 18.0134 6.80669 17.8347 6.79238L12.6055 6.37688L10.3427 1.36786C10.2706 1.20653 10.1534 1.0695 10.0052 0.97332C9.85696 0.877135 9.68407 0.825903 9.50738 0.825806C9.33069 0.825709 9.15774 0.876751 9.00941 0.972773C8.86109 1.0688 8.74372 1.20569 8.67148 1.36694L6.40867 6.37688L1.17951 6.79238C1.00382 6.8063 0.835861 6.87054 0.695723 6.97742C0.555585 7.08429 0.449205 7.22928 0.38931 7.39503C0.329415 7.56079 0.318541 7.74028 0.357988 7.91205C0.397436 8.08383 0.485535 8.24059 0.611746 8.36361L4.47605 12.1307L3.10937 18.0487C3.06788 18.2278 3.08118 18.4153 3.14755 18.5868C3.21392 18.7583 3.3303 18.9058 3.48159 19.0103C3.63288 19.1149 3.81208 19.1715 3.99596 19.1729C4.17983 19.1743 4.35988 19.1204 4.51274 19.0182L9.50708 15.6886L14.5014 19.0182C14.6577 19.1219 14.8419 19.1753 15.0294 19.1712C15.2169 19.1671 15.3986 19.1057 15.5502 18.9952C15.7017 18.8847 15.8158 18.7305 15.8771 18.5532C15.9383 18.376 15.9438 18.1842 15.8929 18.0037L14.2152 12.1334L18.3758 8.38929C18.6482 8.14347 18.7482 7.76007 18.6308 7.41243Z" fill="#F3CD03"/>
</svg>
