<svg width="19" height="20" viewBox="0 0 19 20" fill="none" xmlns="http://www.w3.org/2000/svg">
<path d="M4.53239 12.1308L3.16571 18.0488C3.12339 18.228 3.1361 18.4158 3.20217 18.5876C3.26824 18.7595 3.3846 18.9074 3.53606 19.0122C3.68752 19.1169 3.86704 19.1735 4.05117 19.1746C4.23529 19.1756 4.41547 19.1212 4.56816 19.0183L9.5625 15.6887L14.5568 19.0183C14.7131 19.122 14.8973 19.1754 15.0848 19.1713C15.2723 19.1672 15.4541 19.1058 15.6056 18.9953C15.7571 18.8848 15.8712 18.7306 15.9325 18.5533C15.9937 18.3761 15.9993 18.1843 15.9483 18.0038L14.2707 12.1335L18.4312 8.38938C18.5645 8.26939 18.6597 8.11298 18.705 7.93949C18.7503 7.76599 18.7437 7.58302 18.6861 7.41321C18.6286 7.24339 18.5225 7.09417 18.381 6.98401C18.2395 6.87386 18.0688 6.80758 17.8901 6.79339L12.6609 6.37697L10.3981 1.36795C10.326 1.20666 10.2087 1.0697 10.0604 0.973596C9.91211 0.877493 9.7392 0.826355 9.5625 0.826355C9.38581 0.826355 9.21289 0.877493 9.06462 0.973596C8.91635 1.0697 8.79906 1.20666 8.7269 1.36795L6.46409 6.37697L1.23493 6.79247C1.05924 6.80639 0.891281 6.87063 0.751143 6.97751C0.611005 7.08439 0.504625 7.22937 0.44473 7.39512C0.384835 7.56088 0.37396 7.74037 0.413408 7.91215C0.452856 8.08392 0.540955 8.24068 0.667166 8.3637L4.53239 12.1308ZM7.14926 8.16282C7.31298 8.14992 7.47022 8.09322 7.60449 7.99865C7.73875 7.90408 7.84511 7.77513 7.9124 7.62532L9.5625 3.97381L11.2126 7.62532C11.2799 7.77513 11.3863 7.90408 11.5205 7.99865C11.6548 8.09322 11.812 8.14992 11.9757 8.16282L15.619 8.45175L12.6187 11.1521C12.3582 11.3869 12.2546 11.7483 12.35 12.0858L13.4993 16.1079L10.0725 13.8231C9.92207 13.7221 9.74503 13.6682 9.56388 13.6682C9.38273 13.6682 9.20568 13.7221 9.05527 13.8231L5.47439 16.2106L6.43749 12.0409C6.4728 11.8875 6.46806 11.7277 6.42372 11.5767C6.37939 11.4257 6.29695 11.2886 6.18433 11.1787L3.39777 8.46184L7.14926 8.16282Z" fill="#F3CD03"/>
</svg>
